<svg xmlns="http://www.w3.org/2000/svg" width="280.293" height="251.646" overflow="visible"  xmlns:v="https://vecta.io/nano"><path fill="#0406E0" d="M279.206 9.8c-1.6-1.6-1.75-2.495-4.799-4.4s-2.971-3.019-6.4-3.4-3.352-.181-6.4.2-3.533-.162-6.199.6l-6.801.2c-2.286 0-4.548-.503-7.215-.503s-5.298-.677-7.584-.297-4.714.2-7 .2-7.894.097-10.562-.666-6.857.381-8.762.381-3.81-.116-6.477-.116-4.771-.2-8.2-.2-5.517.315-8.183-.446S175.054 0 172.007 0s-12.172.019-15.601.4-9.876.838-11.399 1.6-3.914-1.523-6.2 0-3.601 2.2-6 2.8c-3.2-.6-1.333-2.238-4-3s-3.617.697-5.522.697-2.592-1.458-4.878-.697-3.123-.446-4.646-.446-2.622.815-5.67 1.196c-9.807 1.225-12.263-.125-16.399 0-5.802.175-11.322 1.023-12.669.933-2.084-.139-2.813-.772-9.016-.083-3.43.381-9.153-.475-12.2-2 0 0-4.675-.542-6.2.6s-3.377 2.021-5.281 1.64c-1.026-.205-3.115-1.273-6.519-1.84-2.286-.38-3.333.458-6 1.6s-8.096-1.2-10-1.2-4.656 1.562-5.8.8-7.515.039-9.801.8-3.696.179-5.982 2.083S.388 9.734.007 12.4c-.197 1.378 3.774 7.024 5.6 10 1.706 2.782 1.849 3.68 2.4 4.6 1.144 1.906 6.902 6.807 7.284 7.95s2.841 6.408 4.364 8.694 7.922 13.496 8.301 14.639.65 4.117 2.45 4.517c.2 3.6 4.858 7.953 6 11s4.692 7.874 6.218 9.016c2.328 1.746 1.328 3.256 2.667 5.6 1.523 2.667 3.065 5.029 3.065 6.934s4.076 7.58 5.6 9.866 4.114 6.991 6.4 10.8c1.183 1.972 2.966 5.536 4.4 8.268 1.336 2.546 2.764 4.279 4.05 6.117.698.998.698 2.131 1.8 4.4.938 1.933 1.799 2.722 2.811 4.883 1.233 2.629 4.257 5.273 5.34 7.8.399.934 1.67 2.922 2.133 3.2 1.66.995 1.389 4.442 3.867 7.333.876 1.022 2.824 4.626 4.641 6.245 2.867 2.557 4.438 6.053 5.159 7.207.565.905-1.054.305-.52 1.334.813 1.567 1.488.199 1.718 1.808.381 2.667.826 3.918 2.731 4.68s.828-.201 3.495-.582 1.59-1.852 3.495.816.327 5.465-.815 6.99.783 3.656 1.164 5.941 3.073 5.448 5.359 10.02c1.046 2.092 2.442 7.027 4.661 11.302a119.45 119.45 0 0 0 4.311 7.573s5.933 9.611 6.874 11.651c1.9 4.117 7.04 12.716 9.787 16.195.558.707 3.291 1.606 3.611 1.864 0 0 1.754.503 3.262.582 1.202.062.683-1.357 1.864-1.864 2.667-1.143 2.509-1.474 3.651-3.379s.366-1.977 1.51-5.024 2.286-3.429 4.19-7.239 1.905-4.572 2.667-7.238 3.852-2.155 4.233-3.299.743-1.456-.4-2.6-.781.306-.399-1.6-.66-2.527.483-4.05 2.138-1.858 2.899-3 3.5-.795 3.5-2.7 1.113-2.182 1.875-3.706 2.667-4.953 4.191-7.238 2.285-5.334 3.047-6.478 1.86-2.705 3.004-4.229 1.188-3.009 1.568-4.153 1.143-.762 1.904-2.286 3.603-6.712 5.127-9.761 4.779-8.146 6.685-11.574 1.811-2.74 3.716-5.026 3.142-8.309 4.666-9.833 1.904-3.809 3.048-6.095 1.904-3.048 3.048-4.19 1.476-4.157 2.238-5.681 1.676-2.219 3.199-2.6.419-.676.801-2.2.199-2.856.199-4-.162-1.456.601-2.6 2.106.317 2.867.317 2.59-2.773 3.732-3.917 2.745-3.703 2.745-6.37 2.285-2.667 3.429-3.81 1.283-4.058 2.427-4.82 2.526-2.799 2.145-4.324 3.049-4.19 3.049-4.19 1.523-1.905 2.286-3.429 3.759-6.913 4.521-8.057 1.956-4.516 2.718-5.659 1.719-2.216 2.481-3.742 1.145-2.895 0-4.8-.543-4.438.602-5.2 4.836-4.275 5.6-5.8 1.113-2.456 3.4-3.6.256-3.8 1.398-3.8 4.045-2.395 4.807-3.919 3.428-4.953 3.428-6.095 1.824-6.405 2.967-6.786 4.199-5.4 4.6-6.8.457-4.237 1.6-5 1.238-1.237 2-2 1.2-4.799-.401-6.399zm-21.817 11.45c-.6 1.1-2.199 4.6-2.699 5.2s-1.801.9-2.301 2.1-1.699 3.4-1.799 3.8-1.4 1.6-1.9 2.2-1.1 1.1-1.301 2.2-2.199 5-2.699 6-2.4 4.5-2.9 5.3-2.6 3.2-2.6 3.2c-.9 1.2-1.601 1.8-2.101 3s-.5 1.3-1 1.8-1.6 1-1.899 1.8-.5 1.8-.9 2.7-2.6 2.7-3 3.9l-3.2 4.6c-.7 1-3.2 6.5-3.899 7.4s-3.2 4.2-3.5 5.3-2.301 2.8-2.4 3.9-.6 3.1-1.2 3.8-1.8 2.6-2.2 3.8-1 2.1-1.699 3.3-4.601 6.3-5.101 7.4-1 3.1-1.899 4.3-2.4 3.6-3.2 5.2c0 0-.8 1.8-1.101 3.1s-2.1 4.6-2.699 5.4-3.7 5.3-4.5 6.5-2.801 4.4-3.601 5.3-2.1 2.8-2.5 3.9-1.2 2.8-1.8 3.5-.5.9-.6 2.6-.601 2-.101 2.6 1.601 1.3 1.7 2.2-.5 1.8-.9 2.5-1.399 2.7-1.899 3-2.3 0-2.9.3-1.6 1.4-2.1 2.3c0 0-1 .2-1 .9s0 .9-.2 1.4-1 .8-1.1 1.5-.5.7-.801 1-.3 1.2-.399 1.7-1 .7-1.101 1.3-.8 3.1-1.3 3.4-.8-1-1.2-.3-1.699 3.3-2 3.9-1.699 3.1-2.199 4-1.801 2.8-2.101 3.6-2.3 2.9-2.399 3.7-1.101 2.9-1.601 3.3-.7 1.1-1.2 2-1.8 2.7-2 3.4-1.6 2.3-1.399 3.1.3 2 .1 2.5-.899.6-1.1 1.1-.7 1-.2 1.4.8.2.5.9-1.2.9-2 1.7-2.5 1.8-3 2.5-1.6 1.8-1.8 2.6-.7 2.1-1.3 2.9-1.601 1.7-2.2 2.5c0 0-1 .8-1 1.4s-.3 1.7-.5 2.1-.8.6-1.2 1.1-.4.7-1 1.1-2 .1-2 .1-1.4-1.7-1.6-2.2 0-.9-.601-1.3-1.6-1.4-1.6-2.2-.3-2-.5-2.5-1-1.6-1.4-1.9-.399-.9-1-1.9-1.7-3.5-2.3-4.4-.9-1.7-1.3-2.1-.9-.4-1.101-.8l-1.699-3.3c-.601-1.2-1.801-2.6-2.2-3.3s-.5-2.1-1-2.9-2.101-2.8-2.4-3.9-1.3-3.1-1.7-3.8-1.699-2.1-2-2.6-.3-1.3-.699-2.4-1.801-2.9-2.101-3.6-1-1.5-1.5-2.7c0 0-1.7-1.7-2-2.7s-.8-3.3-1.7-4.1-1.6-2.4-2.1-3.1-.9-1.2-1.3-1.9-1.9-2.8-2.5-3.8-2.4-4.5-3-5.8l-3.601-8.1c-.8-1.8-.399-1.2-.699-1.5s-.4-.9-.601-1.3-.6-.2-.8-.7.4-1.2.1-1.5-1.8-1.2-1.899-1.8-.9-2-1.4-2.8-1.6-1-1.899-1.9-.2-1.7-.7-2.3c0 0-.7-1-1-1.5s-1.4-1.3-1.601-2-.899-1.8-1.3-2.3-1.6-1-1.8-1.8-.1-1.4-.8-1.8-1.8-1.1-1.8-1.9-.301-1.6-.7-2-1.2-.3-1.3-1.2-.4-1.5-1.2-1.8-3.8-.4-4.7-.6-1.4.2-1.4-1.1.101-2.5 0-3.7.101-2.4-.399-3.5-.7-1.8-1.7-2.2-1.5-1.1-1.9-1.9-1.3-2.5-2-2.9-1.8-2.2-2.399-3-1.501-1.7-2.301-2.2-1-.8-1.2-1.5-.6-2.1-1.1-3.2-1.801-5.5-2.301-6.8l-2-5.3c-.3-.8-.498-3.4-1.098-4.3 0 0-.4-.8-.601-1.9s-.6-3.7-1.1-4.5-2-1.9-2.601-2.9-2.8-4-3.399-4.7-1.5-2-2-3.2-2.2-4.6-2.7-5.7-2.8-3.2-3.6-4-2.4-3.7-3.2-4.5-2-2.7-2.5-3.3-1.2-1.8-1.7-2.7-1.5-3.9-2.4-4.5-2-1.7-2.399-2.9-.9-2.7-1.2-3.3-1.3-1.2-1.5-1.6 0-1.4.6-1.6 5.7-.3 6.601-.3 5.6-.3 6.8-.4l8.1-.6c1.601-.1 7.7.7 9 .8s6.599.7 7.999.8 6.101.1 7.601.1 3.8 0 4.5-.2 2-.7 3.1-.7 5.4.2 6.7.4c1.229.189 3.352.288 5.101.298l.3.001s4.1-.4 5.3-.1 3.3.8 4.2.8 2-.2 3.1.2 2.7 1 3.601 1 2.699-.5 3.399-.7 2.9-.3 3.5-.9 2.101-2 2.5-2.4.9-1.7 1.7-1.5 3.3 1.5 4.1 1.6 3 .7 3.9 1.1 3.8 1.1 5.4 1 7.3-.9 8.399-1 4.9-.4 6.3-.3 5.4-.5 6.9-.1 4.2.3 5.8.9c0 0 3.2 0 5.101.4s8.5.7 9.6.6 4.2 0 5.4.4 5.5.1 6.3.4 3.8.5 5.1.5 1.7-.2 2.4-.6 1.2-1.5 2.2-2.4 2.399-2.6 2.899-2.7 1-.2 1.5.1.5 1 1 1.8.7 1.7 1.8 2.5.5.5 1.9.8 5.7.3 6.7.5 5-.2 6.7 0 3.6 0 5.1.3l5-.6c1.1-.1 3.8-.5 5-.6s3.1-.7 4.7-.6 4.399.4 5.899.2 2.7-.1 4.101.1 5.5-.4 6.299-.3 3.301.3 4.5.2 1.5-.6 1.9.4-.201 1.401-.803 2.501z" /></svg>