<svg xmlns="http://www.w3.org/2000/svg" width="284.979" height="250.333" overflow="visible"  xmlns:v="https://vecta.io/nano"><path fill="#076331" d="M283.58 83.775c-.801-1.066-2.934-3.467-4.533-5.066s-3.734 0-4.534-.533-10.399-.534-12.266-.801-4.534 0-6.935.534-4 .532-5.332-.268-1.068-1.333-1.601-2.399 1.333-.801 2.667-1.601 1.333-.8 2.666-1.867.8-5.333 1.066-7.2 1.334-2.399 2.668-4a30.21 30.21 0 0 0 3.465-5.332l3.201-5.867s3.199-3.733 4-5.333 2.134-4.268 2.666-5.601 2.668-4.267 2.934-5.333 1.334-1.867 2.135-2.134 2.665-3.2 3.465-4.266 2.935-4.534 2.935-6.935 1.866-4.533 1.333-6.133-1.333-4.533-2.133-5.333-4.268-2.4-6.135-2.935-4.533 0-5.332 0-6.934-.266-6.934-.266a16.12 16.12 0 0 0-5.066 0c-1.601.266-4.268 0-5.601.266s-3.2.535-4.532.267l-4.268-.8c-1.333-.266-2.133-1.067-3.467-1.333s-1.334.533-2.133 1.333-1.068 1.6-2.133 2.4-2.135 1.333-2.934 1.067-1.867-.8-2.667-1.867-.8-2.4-2.667-2.667-1.867 0-3.467.535-2.4-.535-4.266-.8-3.201-.267-4.801-.267-2.4.533-4.268.267l-5.6-.8c-1.6-.267-4.266 0-5.866 0s-2.934 0-4.534.266-1.066.534-1.865.8-1.334-1.065-2.135-.8-1.6.267-1.6.267-2.666.533-3.199-.267-1.601.267-3.201.267-.532-.533-2.932-.267-2.4-1.065-4.801-.8-1.334.8-2.4 1.867-1.333 1.067-2.934 1.333-.799-.533-2.133-.533-.801-1.6-1.867-2.133-1.865-.8-3.466-.534-1.867 0-3.2-.266-5.6 0-6.667.266-2.399-.533-3.733-1.066-1.066 1.066-2.133 1.066-1.867-.533-2.934-.8-4-.533-5.6-.8-3.733.267-3.733.267c-1.601 0-2.667-.267-4 .267s-1.468.266-2.534 1.066-2.399-.133-3.466.4-3.601.4-4.399-.133-3.201 0-4.268-.267-1.333.8-2.133.8-4.268-.666-5.6.134-4.268.133-5.601.4-2.667.533-3.733-.267-2.934 0-4.267 0-1.867.533-2.934.533-2.667-.266-4-.533-5.328-.132-7.728.134-6.133.134-7.467-.4-4-.8-5.334-1.065-1.867 1.6-2.666 2.666-1.334 1.334-2.4 1.6-1.865 0-2.934-.8-.267-1.866-.267-1.866-1.601-1.067-2.399-1.334-1.066.8-1.866 1.6-1.067-.266-2.667 0-2.668-.8-3.467-1.065-3.467-.267-5.066-.267-3.199.4-4.8.933-5.067-.133-6.935-.4-4.8 0-6.4.267-3.465-.533-4.532-1.067-4.532-.266-5.601 0-4.799.534-6.666.8-4 1.067-5.066 1.867-1.867 1.867-2.4 3.2.533 1.6.801 2.933.8.8 1.865 1.867 0 1.067 1.867 3.733.801 2.934 1.333 4.8 2.134.535 2.399 1.6-.266 1.867-.266 1.867c0 1.333 0 1.067.801 1.867s1.332-1.067 1.332 1.065.533 1.334 1.601 2.4 2.133 3.2 3.733 4.267 2.134 4.267 3.199 6.132 2.668 6.935 3.467 8.268 3.468 5.867 4 8 3.733 8.8 4 10.4 2.133 5.066 3.733 6.133 3.468 3.467 4.267 4.534-.267 1.6-1.332 1.6-4.935.133-7.067.933-4.133.4-5.2.668-4-2.134-5.332-2.134-3.201.533-4.268.533-4.533.267-6.133.533-4 1.067-5.067 1.333-2.399 2.4-2.667 3.467.534 4 .534 5.334 1.466 3.867 1.733 4.934 3.066 2.266 3.066 2.266c1.333.534 3.2.801 5.066.801s2.666.8 4.533 0 4-.801 5.601-1.334 2.133 0 2.933 0 3.334.268 4.668.268 5.732-.268 7.064-.801 7.201.267 8.801-.533 3.467.8 4.8.8 2.667 4.8 4 6.134 3.2 5.732 4.267 7.066 3.201 4.4 3.468 5.2 1.866 4.267 1.866 4.267 1.334 2.934 2.134 3.467 1.601 2.933 2.133 4.267 1.601 3.733 2.667 4.8 2.133 3.467 3.2 4.267 2.665 2.934 3.733 4.8.267 3.467.532 4.533 1.067 1.867 2.134 2.4 3.201 2.4 3.733 3.467.8 4.267 2.399 5.867 3.201 5.6 4.534 6.933 2.399 5.6 2.667 6.399 1.6 3.734 2.133 5.067 1.867 1.333 2.4 2.933-.267 2.4.8 4 1.066 4.268 1.066 4.268c1.067.8 2.934 1.333 3.733 2.133s1.867 2.4 2.4 3.467-1.066 2.667-1.334 4 .533 2.133 2.134 3.2.534 1.601 1.601 2.4.533 4.532 1.6 5.866 3.733 7.733 5.066 9.066 5.066 8.268 6.133 10.134 1.066 6.399 2.4 8.8 1.867 4.8 3.2 6.934 5.066 5.333 6.934 6.666l.749.376s.539.214 1.605-.053.912-.589 1.379-.856 2 .268 2.383.08.884-.946 1.684-1.48 1.801-1 2.6-1.532 1.867-.534 2.4-1.067 1.066-1.066.801-2.133.799-1.867 1.6-3.2.8-2.399 1.332-3.733 1.601-2.4 2.135-2.934l1.6-1.6s1.334-1.867 1.334-2.934 1.066-2.399 1.066-2.399l1.333-1.867c.532-.8 1.067-2.133 1.867-2.933s1.601-.268 2.399-1.067 1.601-2.667 1.601-2.667-.267-1.6-.8-2.399-.535-1.601-.801-2.934.266-2.4 1.334-3.2 1.867-.8 2.666-1.066 2.666-1.866 2.934-2.934 1.867-2.933 2.667-4 3.733-1.6 4-2.933 2.933-5.867 4-6.934 2.399-3.733 3.466-5.601 1.6-3.199 2.667-5.333 1.067-2.4 2.399-3.467 1.601-2.8 2.934-4.666 1.334-2.534 2.135-3.334 2.665-4.8 3.199-5.866 1.333-1.6 2.4-2.4 1.6-3.199 1.865-4.267 2.268-2.4 3.067-3.733 1.733-4.267 2.267-5.867 1.334-5.332 2.4-6.666 2.533-4.666 3.865-5.467 3.068-4.399 3.867-5.733 1.867-5.066 2.4-6.934 1.867-3.732 2.934-5.066 2.799-4.533 2.799-4.533l4.4-4.267s3.469-4.533 4.268-5.334 1.201-2 2-2.8-.135-.532.4-2.133 2.665-1.733 3.732-2.267 3.199.267 4.268 0 6.932-.267 7.732 0 4.8-.267 5.867-.533 5.865-.8 7.199-.8 3.334 0 4.4-.268 5.066 1.334 5.865 1.334 2.268-.934 3.867-1.733 3.468-2.666 4-3.2 1.334-1.2 1.601-2.8.004-2.404-.796-3.47zm-68.623 15.034c-.457.457-2.285 3.428-2.285 3.428s-2.284 2.286-2.284 3.428-2.286 4.112-2.742 5.026-2.515 2.742-2.515 3.656-1.369 3.884-1.826 4.569-2.514 3.428-3.199 4.798-2.971 5.256-3.428 6.17-.914 2.743-1.828 3.428-2.97 3.199-3.656 3.884-1.828 1.828-1.828 2.515-.457 1.142 0 2.284-.229 2.286-.457 3.199-.912 3.199-2.056 3.655-3.655 2.285-4.569 2.514-2.742 1.828-2.742 1.828 0 .914-.229 1.599-1.143 1.601-1.143 1.601-.914 1.142-.686 1.828.686.685.686 1.828-.229 2.512-1.143 3.426-2.742 4.114-3.428 5.027-2.285 3.656-2.742 4.342-1.828 3.885-3.197 5.713-3.429 4.112-4.113 5.026-1.144 3.884-1.828 4.57-2.057 1.827-2.285 2.513-2.285 4.113-2.514 4.798-.686 2.515-.686 2.515-.914-.687-1.143-.229-1.371 2.058-1.6 2.972-1.37 1.142-1.6 2.284-1.143 1.37-1.828 2.513-2.056 2.971-2.285 3.885-2.512 3.885-2.512 3.885-1.38 1.647-1.38 2.332-1.325 1.502-1.325 2.645-.408.728-1.55 1.641-.636.913-1.778.913c-.686 0-1.229-1.731-1.916-2.646s-1.822-2.686-1.822-4.057-.773-2.415-1.459-2.873-.957-1.548-.957-2.232-.865-1.32-1.095-2.234-.409-2.096-1.095-3.01-1.847-2.131-2.304-3.045-2.058-2.286-2.285-3.2-1.37-2.057-1.599-3.427-2.058-2.057-2.285-3.199-.457-2.514-1.143-3.655-1.371-2.971-1.828-3.656-2.057-4.112-2.742-4.799-2.742-3.884-2.971-5.255-2.284-3.199-2.742-4.342-2.284-3.885-2.512-5.255-2.515-2.742-3.199-4.342-3.199-4.342-3.656-6.169-2.058-2.284-2.971-4.799-1.6-3.427-2.285-4.798-3.199-4.57-3.427-5.484-2.286-3.884-2.742-5.483-2.056-3.885-2.515-5.712.459-1.143-.455-3.199-2.742-.457-2.971-2.514.456-2.513-.229-4.341-3.199-2.514-3.656-3.885-1.828-4.113-2.742-5.483-2.285-3.656-2.742-4.799-1.828-2.057-2.514-3.656-1.371-1.828-1.371-3.198-.228-1.6.914-1.6 4.57.228 5.941.228 3.428 1.144 4.799.687 2.056-1.371 3.884-1.6 3.427.686 5.255.913 8.455 2.058 10.283 1.372 2.97.229 4.798-.229 2.513.685 4.341.457 7.084.457 8.912 0 8.911-.457 10.51-.457 6.855-.229 9.369-.914 11.195-.687 13.252-.914 3.885-.229 5.713-.229 2.971.913 3.885.913 2.512.457 3.198-.228 2.285-2.057 2.285-2.057.001.457.685-.457.687-1.6 1.601-1.143.228 1.371.685 2.057.914.686 1.828 1.371 1.143 1.37 2.285 1.37 1.6.458 3.199 0 .686.914 2.971.687 3.427.457 4.798 0 2.513-.687 3.427-.687 2.057.458 3.428.229 2.514.457 4.342.685 2.741 0 4.799.229 3.885-.229 5.255-.229-.229-.456 1.37 0 3.199-.914 3.885-.456 1.143-.229 2.057-.229 1.143.229 1.143.914-.686 1.598-1.143 2.055zm31.09-48.968c-.8.8-1.3 2.5-1.699 3.5s-2.101 2.7-2.9 3.1-1.4 1.601-2 2.801-2.301 1.899-2.5 3.5-1.9 2.3-2.299 3.899-1.4 4.2-2 4.8-2.201 2.801-2.201 2.801c-.801.8-.801 2.3-1.4 3.3s-1.6.899-2.8 1.3-4.8 1-6 1.2-6 .2-7.601.399-6 .4-7.399.2-6-.8-7.399-.8-4-.4-5.4-.2-5-.399-6.6-.8-6.801-.6-8-.6h-8.601c-1.601 0-7.8-.2-9.399-.2s-6.801.399-8 .399-4.4-.399-5.601-.6-3.2.4-4 .4-2.2.8-2.601.399-2.799-2.2-3.799-2.2-1.801 1-2.601 1.601-2 1.8-3 1.6-2.8-.399-4-1-3.601-.8-5.399-.8-5.601.4-6.601.4-4.2-.601-6-.601-5.8.601-7.399.601-5.801.6-7.4.199-6.2-.6-7.801-.6-4.799 1-6.399.6c0 0-1.601-.399-2.399-.399s-5.201-.4-6.4-.4h-4.2c-1 0-1.2 0-2.2-.399s-.4-.4-2-.801-1.6.2-2.4-.8-2.399-2.6-3.199-4.399-1.4-4-2.2-5.601-2.2-3.8-3.399-4.6-2-2.9-2.801-4.101-3-1.699-3.4-3.5-1.699-3.899-2.299-4.899-1.701-1.3-2.101-3.101-1.399-4.399-2-6 .2-4.199-1-6.399l-2.399-4.5c-1-1.8-2.301-2.9-2.701-3.7s-1.399-2.6-.799-3.2 1.699-.1 2.899-.1 2.8-.3 4 .3 4 .2 5 .4 2.399.2 4 0 2.8.6 5.2.8 5.6.6 7.6.4 5.4.2 6.6-.2 5.4-1.2 7.601-1.4 5.601-.8 7.601-.6 5.399.2 7.799.4 4.201.4 5.601.2 3.3 1.2 4.3.8.301-1.2 1.301-1.2 1.399.4 2.399.4 1 .2 1.601 0 .1-1.1.899-1.7.7-.5 1.7.1 1.8.4 3 .2 1.6-.6 2.199 0-.199.4.601.6.399.4 1 0-.2-1.2.8-1.2 1.6 0 2.6.2 1.201-.2 2.601.4 1 .6 1.601 1.4.399 1.4 1.799 1.2 4.601.2 6 .2 2 .2 3 .6 1 1.4 1.801.8-.4-1.4.4-1.6 1.6.2 2.6.2 1.4 0 3.199-.4 2.4-.2 4.201-.4 2.199-.4 3.6-.4 1.199.2 2.8.4 1.8.2 3.601 0 4 .4 5.799.2 3.201 0 4.4.2 2 .6 3.2.4 1.399 0 2.399-.6 1.4-1.4 2.201-2.2.399-1.3 2-1.1 1.199.3 1.799 1.1.4 1 .801 1.6 0 1.8 1.4 1.8.6.2 2-.2 2-.6 3.399-.8c0 0 1.601-.1 2.399-.3s3.601-.4 4.201 0 3-.1 4 .1 4 .4 5.199.4 3.6-.4 4.4 0 1.8.2 2.8.6 3.8.8 4.8.4 2.801-1.6 4.2-1.6 5-1 6.399-.8 7.601.4 9.002.4 6.199 0 7.199.2 4-.2 5.6.2 3.199.8 4.6 1 2.801 0 4.6-.2 2.4 0 3.4.4 1.7-.5 2.301.5-.5 2.1-.701 3.3-.299 1.6-.1 2.6-.5 1.3-.9 2.1-1.6 2.5-2.199 3.3-.9 1.7-1.301 2.5-1 1.4-1.399 2.4-.399.4-1 1.8-2.899 3.9-3.5 4.5c-.607.602-1.405 2.402-2.206 3.201z" opacity=".5"/></svg>