<svg xmlns="http://www.w3.org/2000/svg" width="280.294" height="251.645" overflow="visible"  xmlns:v="https://vecta.io/nano"><path fill="#BA0000" d="M274.687 229.247c-1.705-2.783-1.848-3.68-2.4-4.602-1.143-1.904-6.902-6.805-7.283-7.949s-2.842-6.408-4.365-8.693-7.921-13.496-8.3-14.639-.65-4.117-2.45-4.518c-.2-3.6-4.858-7.953-6-11s-4.692-7.873-6.217-9.016c-2.328-1.746-1.328-3.256-2.667-5.6-1.523-2.668-3.065-5.029-3.065-6.936s-4.077-7.58-5.601-9.865-4.115-6.99-6.4-10.801c-1.183-1.971-2.965-5.535-4.399-8.266-1.337-2.546-2.764-4.28-4.05-6.117-.699-.999-.699-2.132-1.8-4.4-.939-1.933-1.798-2.722-2.811-4.883-1.232-2.63-4.256-5.273-5.339-7.8-.4-.934-1.67-2.922-2.134-3.2-1.66-.995-1.388-4.442-3.866-7.333-.876-1.023-2.825-4.626-4.642-6.246-2.866-2.556-4.438-6.052-5.158-7.207-.566-.904 1.053-.305.519-1.334-.812-1.567-1.487-.198-1.717-1.808-.381-2.667-.827-3.919-2.731-4.681s-.828.201-3.496.582-1.59 1.852-3.495-.815-.327-5.466.815-6.991-.784-3.655-1.164-5.941-3.073-5.447-5.359-10.019c-1.047-2.091-2.443-7.027-4.661-11.302-2.116-4.077-4.311-7.573-4.311-7.573s-5.933-9.611-6.875-11.651c-1.9-4.117-7.04-12.716-9.787-16.195-.558-.706-3.291-1.606-3.612-1.864 0 0-1.753-.503-3.262-.582-1.202-.062-.682 1.357-1.864 1.864-2.667 1.143-2.508 1.474-3.651 3.379s-.366 1.977-1.509 5.024-2.286 3.429-4.19 7.239-1.905 4.572-2.667 7.238-3.852 2.156-4.232 3.299-.744 1.456.4 2.6.78-.306.4 1.6.659 2.526-.484 4.05-2.138 1.858-2.9 3-3.5.795-3.5 2.7-1.113 2.181-1.875 3.705-2.666 4.953-4.191 7.238-2.286 5.335-3.047 6.478a99.91 99.91 0 0 1-3.003 4.229c-1.144 1.523-1.188 3.01-1.569 4.153s-1.144.762-1.905 2.286-3.603 6.713-5.126 9.761-4.78 8.146-6.684 11.573-1.811 2.741-3.716 5.027-3.142 8.309-4.667 9.832-1.905 3.81-3.047 6.096-1.906 3.049-3.049 4.19-1.476 4.157-2.237 5.682-1.677 2.219-3.2 2.6-.419.676-.8 2.2-.2 2.857-.2 4 .162 1.457-.6 2.6-2.106-.316-2.868-.316-2.59 2.773-3.732 3.918-2.746 3.701-2.746 6.369-2.286 2.666-3.428 3.811-1.285 4.057-2.427 4.82-2.526 2.799-2.146 4.322-3.048 4.191-3.048 4.191-1.523 1.904-2.286 3.428-3.76 6.914-4.521 8.059-1.956 4.516-2.719 5.658-1.72 2.217-2.481 3.74-1.144 2.895 0 4.801.542 4.438-.6 5.199-4.838 4.277-5.601 5.801-1.114 2.457-3.4 3.6-.257 3.801-1.4 3.801-4.043 2.395-4.806 3.918-3.429 4.953-3.429 6.096-1.823 6.404-2.966 6.785-4.2 5.4-4.6 6.801-.457 4.238-1.6 5-1.238 1.238-2 2-1.2 4.801.4 6.4 1.752 2.494 4.8 4.4 2.971 3.018 6.4 3.398 3.353.182 6.4-.199 3.533.162 6.2-.6l6.8-.201c2.286 0 4.548.504 7.216.504s5.298.678 7.584.297 4.714-.199 7-.199 7.894-.098 10.561.664 6.858-.381 8.763-.381 3.81.115 6.477.115 4.771.201 8.2.201 5.516-.316 8.183.445 9.569 1.354 12.617 1.354 12.17-.018 15.6-.398 9.875-.84 11.4-1.602 3.914 1.523 6.2 0 3.6-2.199 6-2.799c3.2.6 1.333 2.236 4 3s3.617-.697 5.521-.697 2.592 1.459 4.878.697 3.123.445 4.647.445 2.622-.814 5.668-1.195c9.808-1.225 12.264.125 16.4 0 5.802-.174 11.32-1.023 12.667-.934 2.084.139 2.812.771 9.017.084 3.428-.383 9.152.475 12.199 2 0 0 4.676.541 6.201-.602s3.376-2.02 5.281-1.639c1.025.205 3.114 1.271 6.519 1.84 2.286.381 3.333-.459 6-1.6s8.096 1.199 10 1.199 4.656-1.562 5.799-.801 7.516-.039 9.801-.799 3.697-.178 5.982-2.084 1.836-3.85 2.217-6.516c.2-1.376-3.772-7.023-5.598-9.997zm-17.584 4.849c-.6.199-5.7.299-6.6.299s-5.6.301-6.8.4l-8.1.6c-1.6.102-7.7-.699-9-.799s-6.599-.701-7.999-.801-6.101-.1-7.601-.1-3.8 0-4.5.199-2 .701-3.1.701-5.4-.201-6.7-.4c-1.228-.189-3.352-.289-5.1-.299-.102 0-.201-.002-.3-.002 0 0-4.1.4-5.3.102s-3.3-.801-4.2-.801-2 .199-3.1-.199-2.7-1-3.6-1-2.7.5-3.4.699-2.9.301-3.5.9-2.1 2-2.5 2.4-.9 1.699-1.7 1.5-3.3-1.5-4.1-1.602-3-.699-3.9-1.1-3.8-1.1-5.4-1-7.3.9-8.4 1-4.9.4-6.3.301-5.4.5-6.9.1-4.2-.301-5.8-.9c0 0-3.2 0-5.1-.4s-8.5-.699-9.6-.6-4.2 0-5.4-.4-5.5-.1-6.3-.398-3.8-.5-5.1-.5-1.7.199-2.4.6-1.2 1.5-2.2 2.4-2.4 2.6-2.9 2.699-1 .199-1.5-.1-.5-1-1-1.801-.7-1.699-1.8-2.5-.5-.5-1.9-.799-5.7-.301-6.7-.5-5 .199-6.7 0-3.6 0-5.1-.301l-5 .6c-1.1.1-3.8.5-5 .6s-3.1.701-4.7.602-4.4-.4-5.9-.201-2.7.1-4.1-.1-5.5.4-6.3.301-3.3-.301-4.5-.201-1.5.6-1.9-.4.2-1.398.8-2.5 2.2-4.6 2.699-5.199 1.8-.9 2.3-2.1 1.7-3.4 1.8-3.801 1.4-1.6 1.9-2.199 1.1-1.1 1.3-2.201 2.2-5 2.7-6 2.4-4.5 2.9-5.299 2.6-3.201 2.6-3.201c.9-1.199 1.6-1.799 2.1-3s.5-1.299 1-1.799 1.6-1 1.9-1.801.5-1.799.9-2.699 2.6-2.701 3-3.9l3.2-4.6c.7-1 3.2-6.5 3.9-7.4s3.2-4.199 3.5-5.301 2.3-2.799 2.4-3.898.6-3.102 1.2-3.801 1.8-2.6 2.2-3.801 1-2.1 1.7-3.299 4.6-6.301 5.1-7.4 1-3.1 1.9-4.301 2.4-3.6 3.2-5.199c0 0 .8-1.801 1.1-3.1s2.1-4.6 2.7-5.4 3.7-5.3 4.5-6.5 2.8-4.4 3.6-5.301 2.1-2.8 2.5-3.899 1.2-2.8 1.8-3.5.5-.9.6-2.601.6-2 .1-2.6-1.6-1.3-1.7-2.2.5-1.8.9-2.5 1.4-2.7 1.9-3 2.3 0 2.9-.3 1.6-1.4 2.1-2.3c0 0 1-.2 1-.9s0-.899.2-1.399 1-.801 1.1-1.5.5-.7.8-1 .3-1.2.4-1.7 1-.7 1.1-1.3.8-3.101 1.3-3.4.8 1 1.2.3 1.7-3.3 2-3.899 1.7-3.101 2.2-4 1.8-2.801 2.1-3.601 2.3-2.899 2.4-3.7 1.1-2.899 1.6-3.3.7-1.1 1.2-2 1.8-2.7 2-3.399 1.6-2.301 1.4-3.101-.3-2-.1-2.5.9-.6 1.1-1.1.7-1 .2-1.4-.8-.2-.5-.9 1.2-.9 2-1.7 2.5-1.8 3-2.5 1.6-1.8 1.8-2.6.7-2.1 1.3-2.9 1.6-1.7 2.2-2.5c0 0 1-.8 1-1.4s.3-1.7.5-2.1.8-.6 1.2-1.1.4-.7 1-1.1 2-.1 2-.1 1.4 1.7 1.6 2.2 0 .9.6 1.3 1.6 1.4 1.6 2.2.3 2 .5 2.5 1 1.6 1.4 1.9.4.9 1 1.9 1.7 3.5 2.3 4.4.9 1.7 1.3 2.1.9.4 1.1.8l1.7 3.3c.6 1.2 1.8 2.6 2.2 3.3s.5 2.101 1 2.9 2.1 2.8 2.4 3.899 1.3 3.101 1.7 3.801 1.7 2.1 2 2.6.3 1.3.7 2.4 1.8 2.899 2.1 3.6 1 1.5 1.5 2.7c0 0 1.7 1.7 2 2.7s.8 3.3 1.7 4.1 1.6 2.4 2.1 3.1.9 1.2 1.3 1.9 1.9 2.8 2.5 3.8 2.4 4.5 3 5.8l3.6 8.101c.8 1.8.4 1.2.7 1.5s.4.899.6 1.3.6.2.8.7-.4 1.2-.1 1.5 1.8 1.2 1.9 1.8.9 2 1.4 2.8 1.6 1 1.9 1.9.2 1.7.7 2.3c0 0 .7 1 1 1.5s1.4 1.3 1.6 2 .9 1.8 1.3 2.3 1.6 1 1.8 1.799.1 1.4.8 1.801 1.8 1.1 1.8 1.9.3 1.6.7 2 1.2.299 1.3 1.199.4 1.5 1.2 1.801 3.8.4 4.7.6 1.4-.199 1.4 1.1-.1 2.5 0 3.701-.1 2.398.4 3.5.7 1.799 1.7 2.199 1.5 1.1 1.9 1.9 1.3 2.5 2 2.9 1.8 2.199 2.4 3 1.501 1.699 2.301 2.199 1 .801 1.2 1.5.6 2.1 1.1 3.199 1.8 5.5 2.3 6.801l2 5.301c.3.799.499 3.398 1.099 4.299 0 0 .4.801.601 1.9s.6 3.699 1.1 4.5 2 1.9 2.6 2.9 2.8 4 3.4 4.699 1.5 2 2 3.201 2.2 4.6 2.7 5.699 2.8 3.199 3.6 4 2.4 3.699 3.2 4.5 2 2.699 2.5 3.301 1.2 1.799 1.7 2.699 1.5 3.9 2.4 4.5 2 1.699 2.4 2.9.9 2.699 1.199 3.299 1.301 1.201 1.5 1.602.001 1.399-.599 1.6z" /></svg>