<svg xmlns="http://www.w3.org/2000/svg" width="430.072" height="428.75" overflow="visible" xmlns:v="https://vecta.io/nano"><path d="M428.89 229.571c.244-2.934 1.711-5.867.977-7.578s-1.467-4.889-2.199-6.845.244-3.422.488-5.623-.244-4.4.488-7.089-.244-4.156-.244-6.111-.488-4.156-.732-5.867-.734-2.2-1.223-3.423 1.264-1.865 1.264-1.865c0-3.613-3.096-4.646-2.58-9.292s-.516-7.744-2.064-12.906-.518-6.711-2.066-7.744-3.613-3.097-4.129-5.162c0 0-.516-7.744-2.064-9.809s-3.615-11.874-5.162-14.971-4.131-6.711-3.615-9.292-5.162-8.26-6.711-11.357-4.646-5.679-6.711-8.776-5.678-7.743-7.227-11.357-3.613-5.679-4.646-7.744-3.613-2.065-5.162-2.065-5.162-6.195-7.227-8.26-4.646-5.679-6.713-6.195-6.193-5.679-7.742-7.744-4.646-4.646-7.229-5.678-4.129-1.549-4.129-1.549-5.162-4.13-6.711-7.744-5.68-.516-8.26-1.549-2.582-3.097-6.711-5.678-6.711-4.13-9.293-5.163-5.162-3.614-8.26-4.646-8.26-1.033-10.84-2.581-3.098-1.549-5.68-2.065-6.711-2.065-9.291-3.098-8.26-1.032-10.326-2.581-5.162-2.065-7.742-2.581-3.615-1.549-3.615-3.614-6.711-2.065-9.291-2.065-8.26-.516-9.809-.516-4.646 2.065-5.678 2.581-4.13 1.549-6.195 1.549-3.098 3.097-6.711 2.581c0 0-3.619-1.229-4.597-1.718s-3.667-1.711-4.156-2.933-2.2.244-3.911.244-1.467-.489-2.2-1.711S201.544.27 199.588.025s-4.889 1.222-6.111.978-2.934-.245-4.889-.489-5.378 1.711-7.578 2.444-6.845 3.178-9.045 3.667-7.578 1.956-9.534 2.689-6.356 1.711-8.8 2.2-8.556 2.2-10.756 2.934-3.667 2.934-5.623 4.156-5.133 2.689-6.6 3.178-3.178 2.445-6.111 3.422-5.867 4.4-8.067 6.356-2.689 1.711-4.156 2.2-2.689 1.711-3.422 3.667-.489 2.933-2.689 4.4-4.156 2.934-5.378 4.156-1.956 3.422-4.156 4.4-3.667-1.711-4.889-2.445-2.689.978-5.134 1.956l-8.312 3.422c-1.956.733-4.156 3.422-6.845 5.623s-.489 2.933-1.711 4.645-1.711.489-2.2.733-1.467 2.934-2.2 4.889-3.667 3.422-5.378 4.889-3.178 3.178-4.4 4.4-2.689 1.467-3.911 1.467-3.423 3.422-5.378 4.889-4.889 5.867-6.6 8.312-2.689 3.178-3.667 4.889-1.222 4.156-1.956 6.111-1.468.979-1.468.979c-1.223 1.222-1.711 2.689-1.467 4.4s-1.222 3.911-.244 6.111 0 3.667-.245 5.623-2.934 2.934-4.4 4.4-4.156 2.444-6.356 2.444-2.445 1.956-3.912 3.912-2.689 3.422-3.667 4.889-1.956 5.867-2.934 7.822-1.467 2.689-.733 5.867.978 2.689 2.934 4.645.978 2.934 1.956 5.378-.489 3.912.489 6.112-.489 3.667-1.956 5.378-3.667 1.711-5.378 2.444-3.422 3.178-4.645 4.645A8.54 8.54 0 0 0 .11 184.59c0 1.956-.244 4.156 0 6.356s1.467 1.711 1.222 3.178-.733 2.689-.489 5.134-.488 7.089-.488 7.089c.245 3.178.244 8.8.733 11.489s0 1.956.244 3.422-.733 3.422-.489 5.623.245 3.667 1.467 5.867 1.711 0 1.711 2.934-1.711 2.444-1.467 4.156 1.223 4.4 1.223 8.067.244 8.067.489 10.267 1.467.489 2.444 1.711 0 1.956.245 3.911.245 1.956.245 3.911c0 0 1.222 4.889 1.467 8.312s3.422 2.689 4.156 4.4-.245 2.934 1.467 5.623.244 2.689.978 3.667.245 2.689 1.222 4.889 1.711 2.2 2.689 3.911.733 4.645 2.445 7.333 2.689 1.956 3.667 3.667.978 2.689 1.467 4.4 1.956 2.2 3.667 3.178 2.2 4.156 2.2 4.156l1.467 2.689c1.467 2.689 2.444 4.645 4.156 7.334s1.711 2.2 2.444 3.667 2.934-.978 3.912.978-.733.733-.978 1.956-.489 1.467.489 2.934.733 1.711 2.445 3.667 1.956 2.2 3.911 4.156 2.445 1.956 3.422 2.933.733 1.956 1.223 3.178.489 1.222 1.956 1.467 1.956 2.689 4.4 3.667.733.978 3.178 3.422 1.956 2.689 5.378 5.133.245 3.423 2.934 5.867 3.422.245 5.134 1.467 1.711 2.2 3.667 4.156 3.667 2.2 5.867 3.667l5.378 3.666c2.2 1.467 2.445-.733 4.889.979s2.2 3.178 4.156 4.889 1.956.489 3.178 2.689 1.223 1.711 3.422 3.667 4.889 1.222 5.867 1.955 3.911 1.467 5.134 2.689 1.711.488 3.422 1.222 2.444 1.223 3.667 1.956 1.956.244 3.178 1.467 2.444 1.467 3.911 2.688 2.934.979 4.4 1.712c0 0 4.156.978 5.378 1.711s2.934 2.444 2.934 2.444c2.934 1.467 3.422.244 6.356.489s3.178-.245 6.111-1.467 2.2-.245 5.134-.489 1.222-.489 3.667 2.2 1.223 2.2 3.667 3.911 2.689.978 5.134 2.689 3.178-.245 5.133 0 4.645.244 7.089.733 4.156.733 5.867 1.222 3.911.489 6.111.489 3.911.244 6.845 1.223 3.178 0 5.378 0 3.178.244 6.356 0 2.689-.489 4.156-.979 1.467-.244 3.667.489 3.422.489 5.623 0 3.422-.733 5.133-.978 3.912 0 5.379.488 1.711 0 4.889-.978 3.666-.978 6.111-1.223 3.178-.244 5.133-.978 3.178-1.223 4.891-1.223 1.955.733 3.422.245 4.156-.489 5.377-1.712.979-1.466 3.18-1.711 4.154-.244 6.111-.488 5.133-1.223 6.111-1.467 1.221-.979 2.688-1.467 2.689-.489 4.156-.979 3.422-1.955 5.379-2.688 2.201-.979 2.201-.979c2.689-.733 1.955-1.222 3.422-2.688s2.445-1.467 4.4-1.467 1.711-.489 2.934-1.467 2.689-1.712 4.156-2.445 2.688-1.711 3.91-2.199 3.422-2.934 4.889-3.912 1.223-1.222 3.18-.488c0 0 2.688-.979 4.154-1.956s.244-1.467 1.957-2.2 1.467-1.467 3.422-2.444 1.955-.733 2.934-2.2.977-1.467 2.443-2.934 1.467-.733 2.201-1.467 2.934-1.467 4.156-2.934 2.443-1.711 3.178-2.2 2.688-2.444 4.645-3.666 3.422-2.689 4.889-3.912 3.422-3.178 4.889-4.399 2.689-1.468 3.668-2.934 3.178-4.156 3.91-4.889.979-1.467 2.201-2.2 0 0 1.223 0 1.221-.978 1.711-2.445.244-1.467 1.221-2.934 1.467-.978 2.445-1.711 2.201-2.689 3.178-3.178 1.957-3.667 2.934-5.623 1.711-1.711 1.711-3.178 1.957-1.711 1.957-1.711 2.199-3.422 3.178-5.378 1.955-3.178 2.443-4.156.49-1.711 1.467-2.689 1.711-.489 1.957-2.689 1.711-2.934 1.467-4.4 1.955-3.667 2.932-4.645 1.957-1.467 2.934-3.178 0-1.223.49-3.423 1.711-3.667 2.443-5.133 1.713-2.934 1.713-3.667 1.711-3.911 1.711-5.133 1.467-1.223 1.711-3.423.244-2.933.244-2.933c.734-1.956 1.223-2.444 1.713-5.133s.732-3.912.732-6.845.488-2.2 1.223-3.667 1.711-3.667 1.955-5.378.244-2.689.734-5.134-.49-3.422-.979-5.867 1.711-2.444 1.955-4.156-.488-2.444-.488-4.4 1.955-2.445 2.199-4.645-1.711-3.422-1.221-5.378c.482-1.95 1.214-1.95 1.46-4.883zm-26.443-4.655c0 1.956-.205 3.812-.449 4.791s-.39 5.477-.39 6.023c0 2.934 0 5.622-.978 8.8s-1.223 7.089-1.223 9.29-.488 4.89-1.222 6.356a18.46 18.46 0 0 0-1.712 5.867c-.244 2.2-1.223 5.623-1.467 7.334 0 0-2.198 5.622-2.443 6.844s-1.711 4.645-2.2 6.601-1.222 5.623-2.2 8.312-1.712 3.178-2.445 5.378-2.689 5.867-3.178 7.823-1.223 2.689-2.2 4.645-3.59 4.115-4.812 5.582-.321 2.241-1.299 4.441-3.812 4.003-5.034 5.226-2.588 2.445-2.833 3.667-.199 1.13-.688 2.353-1.205-.632-2.183 1.324-1.301 2.213-2.279 3.191-2.214 1.236-3.191 3.191-2.613 4.027-3.103 5.25.367-.69-1.685 1.133c-1.317 1.171-4.331 3.191-4.331 3.191s-1.09 1.285-1.823 2.507-.83 1.123-2.052 1.368-.378.601-1.6 2.312-3.071 2.832-4.783 4.298-3.532 2.654-5.243 3.875-4.46 2.196-5.927 3.419-1.404 1.119-2.87 2.097-1.345.639-3.057.639-1.919.179-3.875.912c0 0-1.625-.148-4.559 2.052-3.612 2.709-8.557 4.851-9.574 5.698-1.467 1.223-2.893 2.679-4.359 4.39s-1.646.576-3.847 1.31-2.214.568-3.191 2.279-3.076 2.02-4.787 2.508-4.722 1.058-5.699 2.279-3.076 2.197-4.787 3.419-3.921.406-6.61 1.14-4.216-.065-5.927.912c-1.882 1.075-1.427-.362-4.559 1.596-1.956 1.223-2.554.617-5.243 1.596s-2.847 2.118-4.559 1.14-1.708-1.074-3.419-2.052-2.831-1.367-4.787-1.367-3.677-1.857-6.611-1.368-6.413 1.628-9.346 1.14-5.745-1.629-8.434-1.14-5.484.033-8.662-.456c0 0-7.031-2.457-10.942-3.19s-7.991-2.28-11.169-2.28-6.33-.406-10.486-1.14-10.922-2.181-14.589-3.647c0 0-4.232-.878-5.699-1.367s-2.392-.406-4.103-1.14-4.688-2.23-6.154-2.964-4.638-.356-6.838-1.823-4.411-3.893-6.611-3.647-1.724 1.189-3.191.456 1.338-2.002-1.596-2.735-3.694-3.549-6.383-5.015-2.587-2.393-4.787-4.104-3.221-2.848-6.155-4.559-3.042-2.425-5.243-3.647-3.06-1.952-5.015-3.419-2.815-4.054-5.015-4.787-1.431-2.653-3.875-3.875-3.304-2.864-5.015-4.331-1.447-.747-3.647-3.191-1.741-2.409-2.963-3.875-1.534-2.433-3-3.411-.254-2.222-2.698-3.199-2.408-3.581-3.875-4.559-3.271-.83-5.471-2.052-4.232-3.37-5.699-4.103-1.758 1.923-2.736.456-1.767.256-1.034-1.699 2.957-3.166 1.49-5.366-1.124-1.953-1.368-3.419.366-1.237-.856-3.193-.396-4.604-2.107-7.293-1.758-3.971-2.736-5.927-.079-3.482-2.279-5.927-3.564-5.306-4.787-7.75-1.302-5.566-2.279-7.522-1.107-3.254-1.596-5.699-1.807-7.552-2.052-10.486c0 0-.618-6.023-1.596-7.979s-1.579-5.095-1.823-7.294-.717-14.001-.228-15.957-1.006-9.839-1.006-12.528.733-9.534.733-11.49 0-8.312.978-11.734 1.71-7.823 2.2-9.534 1.467-7.822 2.445-10.756 3.912-9.534 5.623-12.223 2.444-9.044 3.911-11.489c1.976-3.293 5.544-11.318 6.354-13.099l1.237-2.835s3.667-3.422 4.4-5.867 3.667-8.067 4.889-10.023 4.645-4.4 5.623-6.111 5.623-7.334 7.578-9.29 5.622-6.6 7.822-7.822 5.868-4.889 6.845-5.623 1.467-.978 2.689-1.956 4.4-5.623 6.111-6.112 4.645-4.155 7.089-5.133 6.845-3.667 8.8-4.645 4.4-3.667 6.111-4.4 2.689-2.2 4.156-2.934 2.934-2.2 3.912-2.2 2.933-2.2 3.667-1.956 1.956 0 2.689-.489 1.467-2.689 2.934-3.178 2.934-.245 4.4-1.222 1.956-2.444 2.934-2.444 1.956-.733 3.911-1.467 4.4-2.201 6.111-2.445 1.956-.733 3.667-1.222 4.155-2.445 5.867-2.934 4.401-1.466 6.845-1.711 3.423-.245 4.889-.489 5.378-1.711 6.845-1.711 3.912-1.711 6.356-1.222 5.867-.489 7.578-.245 3.911-.978 6.111-.978 8.067-.734 8.067-.734l9.534.733c2.445.244 8.557 1.467 10.023 1.222s7.823.244 9.778.489 9.533 1.711 11.489 2.2 9.045-1.467 10.756 0 3.668 1.222 4.89 2.444 5.866 2.2 7.822 2.934 17.846 5.378 20.29 6.601 8.557 3.667 10.512 5.623 8.066 5.378 9.533 6.845.489-.978 1.956 0 2.199 1.956 3.911 3.422 7.579 3.912 8.557 5.623 3.421 4.4 4.399 4.889 1.955 2.2 3.667 3.667 4.645 2.689 5.867 3.667 1.955 2.444 2.444 3.422 2.444.734 2.934 2.445.733 2.2 2.2 2.444 1.711-.733 2.444 0l.602.814a52.58 52.58 0 0 0 2.125 2.25c1.223 1.222 1.517 1.289 2.25 3s1.892 2.914 2.625 4.625c.601 1.401 3.2 4.25 5 5.25 2.2 1.222 4.647 3.414 5.625 5.125s.875 2.522.875 3.5 2.146 2.147 3.125 3.125 3.256 4.419 3.5 6.375 1.625 1.43 1.625 3.875.021 1.886 1 2.375 1.511 2.653 2 3.875c.684 1.708 1.304 1.423 2.25 3 .733 1.222 1.367 1.748.634 3.459s.489.734-.733 1.711-1.468.733-1.712 2.444.771 2.957 1.748 4.179 2.056 1.732 2.545 3.443 1.812 3.324 2.545 4.791-1.852 2.835-2.096 4.791.953 1.582 1.197 3.293.859.794 1.348 2.994c0 0 1.512 2.576 2.245 4.042s.002 3.269.246 4.491 1.565 2.071 2.299 3.293.804 3.489 1.048 5.689.599 5.994.599 8.683.454 4.825.21 7.27.973 4.074.239 7.252c-.688 2.979.493 8.012.749 11.078.245 2.929-.149 5.076-.149 7.032z"/></svg>