<svg xmlns="http://www.w3.org/2000/svg" width="284.981" height="250.331" overflow="visible"  xmlns:v="https://vecta.io/nano"><path fill="#ffd61d" d="M283.534 239.356c-.268-1.333-.801-.8-1.867-1.867s0-1.067-1.865-3.733-.801-2.934-1.334-4.8-2.135-.534-2.4-1.6.266-1.867.266-1.867c0-1.333 0-1.067-.799-1.867s-1.334 1.066-1.334-1.066-.533-1.334-1.6-2.4-2.133-3.2-3.733-4.267-2.134-4.267-3.2-6.133-2.667-6.934-3.468-8.267-3.466-5.867-4-8-3.732-8.8-4-10.4-2.132-5.067-3.732-6.133-3.467-3.467-4.267-4.534.267-1.6 1.333-1.6 4.935-.133 7.067-.933 4.133-.4 5.199-.667 4 2.134 5.333 2.134 3.2-.534 4.267-.534 4.535-.266 6.134-.533 4-1.067 5.066-1.333 2.4-2.4 2.666-3.467-.533-4-.533-5.333-1.465-3.867-1.732-4.934-3.066-2.266-3.066-2.266c-1.334-.533-3.201-.8-5.066-.8s-2.667-.8-4.535 0-4 .8-5.6 1.333-2.133 0-2.933 0-3.335-.267-4.668-.267-5.732.267-7.066.801-7.2-.267-8.8.533-3.466-.8-4.8-.8-2.667-4.8-4-6.133-3.2-5.733-4.267-7.066-3.2-4.4-3.467-5.2-1.867-4.267-1.867-4.267-1.333-2.934-2.133-3.467-1.6-2.934-2.133-4.267-1.6-3.733-2.667-4.8-2.133-3.467-3.2-4.267-2.667-2.933-3.733-4.8-.267-3.466-.533-4.533-1.067-1.867-2.134-2.4-3.2-2.4-3.733-3.467-.8-4.267-2.4-5.867-3.2-5.6-4.533-6.934-2.4-5.6-2.667-6.4-1.6-3.733-2.133-5.066-1.867-1.333-2.4-2.934.267-2.4-.8-4-1.067-4.267-1.067-4.267c-1.067-.8-2.933-1.333-3.733-2.133s-1.867-2.4-2.4-3.466 1.066-2.667 1.333-4-.533-2.134-2.133-3.2-.534-1.6-1.6-2.4-.534-4.534-1.6-5.867-3.733-7.733-5.067-9.067-5.067-8.267-6.133-10.133-1.066-6.4-2.4-8.8-1.867-4.8-3.2-6.934-5.067-5.333-6.934-6.667l-.748-.376s-.541-.213-1.607.054-.911.591-1.378.858-2-.267-2.383-.08-.883.946-1.684 1.479-1.8 1-2.6 1.533-1.866.534-2.4 1.067-1.066 1.067-.8 2.133-.8 1.867-1.6 3.2-.8 2.4-1.333 3.734-1.6 2.4-2.133 2.933l-1.6 1.6s-1.333 1.867-1.333 2.933-1.066 2.4-1.066 2.4l-1.333 1.867c-.533.8-1.067 2.134-1.867 2.934s-1.6.267-2.4 1.066-1.6 2.667-1.6 2.667.267 1.6.8 2.4.534 1.6.8 2.933-.266 2.4-1.333 3.2-1.867.8-2.667 1.067-2.667 1.867-2.933 2.933-1.867 2.934-2.667 4-3.733 1.6-4 2.934-2.934 5.866-4 6.933-2.399 3.733-3.466 5.6-1.6 3.2-2.667 5.333-1.067 2.4-2.4 3.467-1.6 2.8-2.933 4.667-1.333 2.533-2.133 3.333-2.667 4.8-3.2 5.867-1.333 1.6-2.4 2.4-1.6 3.2-1.867 4.266-2.267 2.4-3.066 3.734-1.733 4.266-2.267 5.866-1.333 5.333-2.4 6.667-2.533 4.667-3.866 5.467-3.067 4.4-3.867 5.733-1.867 5.067-2.4 6.933-1.867 3.734-2.933 5.067-2.8 4.533-2.8 4.533l-4.4 4.267s-3.467 4.533-4.267 5.333-1.2 2-2 2.8.133.534-.4 2.134-2.667 1.733-3.733 2.267-3.2-.267-4.267 0-6.933.267-7.733 0-4.8.267-5.867.533-5.866.8-7.2.8-3.333 0-4.4.266-5.067-1.333-5.867-1.333-2.269.934-3.869 1.734-3.467 2.666-4 3.2-1.334 1.2-1.6 2.8 0 2.4.8 3.467 2.933 3.467 4.533 5.066 3.733 0 4.533.533 10.4.533 12.267.8 4.533 0 6.933-.533 4-.534 5.333.266 1.066 1.334 1.6 2.4-1.333.8-2.667 1.6-1.333.8-2.667 1.867-.8 5.333-1.066 7.2-1.334 2.4-2.667 4-2.667 3.733-3.467 5.333-2.4 4-3.2 5.867-3.2 3.733-4 5.333-2.133 4.267-2.666 5.6-2.667 4.267-2.934 5.333-1.333 1.867-2.133 2.133-2.667 3.2-3.467 4.267-2.933 4.533-2.933 6.934-1.867 4.533-1.333 6.133 1.333 4.534 2.133 5.334 4.267 2.4 6.133 2.933 4.534 0 5.333 0 6.933.267 6.933.267a16.13 16.13 0 0 0 5.067 0c1.6-.266 4.267 0 5.6-.267s3.2-.533 4.533-.267l4.267.8c1.333.266 2.133 1.067 3.467 1.333S46.2 246.29 47 245.49s1.067-1.6 2.133-2.4 2.133-1.333 2.934-1.066 1.866.8 2.667 1.866.8 2.4 2.667 2.667 1.867 0 3.467-.533 2.4.533 4.267.8 3.2.267 4.8.267 2.4-.533 4.267-.267l5.6.8c1.6.267 4.267 0 5.867 0s2.933 0 4.533-.267 1.066-.533 1.867-.8 1.333 1.066 2.133.8 1.6-.267 1.6-.267 2.667-.533 3.2.267 1.6-.267 3.2-.267.533.533 2.933.267 2.4 1.067 4.8.8 1.333-.8 2.4-1.867 1.334-1.066 2.934-1.333.8.533 2.133.533.8 1.6 1.867 2.133 1.867.8 3.467.533 1.867 0 3.2.267 5.6 0 6.667-.267 2.4.533 3.733 1.067 1.067-1.067 2.134-1.067 1.866.533 2.933.8 4 .533 5.6.8 3.733-.267 3.733-.267c1.6 0 2.667.267 4-.267s1.467-.266 2.533-1.066 2.4.133 3.467-.4 3.6-.4 4.4.133 3.2 0 4.267.267 1.333-.8 2.133-.8 4.267.667 5.6-.133 4.267-.133 5.6-.4 2.667-.534 3.733.267 2.933 0 4.267 0 1.867-.533 2.934-.533 2.666.266 4 .533 5.333.133 7.733-.133 6.133-.134 7.467.4 4 .8 5.333 1.066 1.867-1.6 2.667-2.667 1.333-1.333 2.4-1.6 1.867 0 2.934.8.267 1.866.267 1.866 1.6 1.067 2.4 1.333 1.066-.8 1.867-1.6 1.067.266 2.667 0 2.667.8 3.466 1.066 3.466.267 5.066.267 3.2-.4 4.8-.933 5.067.133 6.934.4 4.8 0 6.399-.267 3.467.533 4.534 1.066 4.532.267 5.6 0 4.8-.533 6.667-.8 4-1.067 5.066-1.867 1.867-1.867 2.398-3.2-.534-1.598-.801-2.931zM70.023 151.522c.457-.457 2.285-3.427 2.285-3.427s2.285-2.286 2.285-3.428 2.285-4.112 2.742-5.026 2.514-2.742 2.514-3.656 1.371-3.884 1.828-4.57 2.513-3.427 3.199-4.798 2.97-5.255 3.427-6.169.914-2.743 1.828-3.428 2.97-3.199 3.656-3.885 1.828-1.828 1.828-2.513.457-1.142 0-2.285.229-2.286.457-3.199.914-3.199 2.057-3.656 3.656-2.285 4.57-2.513 2.742-1.828 2.742-1.828 0-.914.229-1.6 1.143-1.6 1.143-1.6.914-1.142.686-1.828-.686-.686-.686-1.828.229-2.513 1.143-3.427 2.742-4.113 3.427-5.027 2.285-3.656 2.742-4.341 1.828-3.884 3.199-5.712 3.427-4.113 4.113-5.027 1.143-3.884 1.828-4.57 2.056-1.828 2.285-2.513 2.285-4.113 2.513-4.799.686-2.513.686-2.513.914.686 1.143.229 1.371-2.057 1.6-2.971 1.371-1.142 1.599-2.285 1.143-1.371 1.828-2.513 2.057-2.97 2.285-3.884 2.513-3.885 2.513-3.885 1.379-1.647 1.379-2.333 1.326-1.501 1.326-2.644.407-.728 1.55-1.642.636-.912 1.778-.912c.686 0 1.229 1.73 1.915 2.645s1.823 2.686 1.823 4.057.773 2.416 1.459 2.873.958 1.548.958 2.233.866 1.32 1.094 2.234.408 2.095 1.094 3.009 1.848 2.132 2.305 3.046 2.057 2.286 2.285 3.199 1.371 2.057 1.599 3.427 2.057 2.057 2.285 3.199.457 2.513 1.142 3.656 1.371 2.97 1.828 3.656 2.056 4.113 2.742 4.798 2.743 3.885 2.971 5.255 2.285 3.199 2.742 4.341 2.285 3.884 2.514 5.255 2.513 2.742 3.199 4.341 3.199 4.342 3.656 6.169 2.057 2.285 2.971 4.798 1.599 3.427 2.285 4.798 3.199 4.57 3.427 5.484 2.286 3.884 2.742 5.484 2.057 3.885 2.514 5.712-.457 1.142.457 3.199 2.742.457 2.97 2.513-.457 2.513.229 4.341 3.199 2.514 3.656 3.885 1.828 4.113 2.742 5.484 2.285 3.656 2.742 4.798 1.828 2.057 2.513 3.656 1.371 1.828 1.371 3.199.229 1.6-.914 1.6-4.57-.229-5.941-.229-3.427-1.143-4.798-.686-2.056 1.371-3.884 1.6-3.428-.686-5.256-.914-8.454-2.057-10.282-1.371-2.97-.229-4.798.229-2.514-.686-4.342-.457-7.083-.457-8.911 0-8.911.457-10.511.457-6.855.229-9.368.914-11.196.686-13.252.914-3.884.229-5.712.229-2.97-.914-3.884-.914-2.513-.457-3.199.229-2.285 2.057-2.285 2.057 0-.457-.686.457-.686 1.6-1.6 1.143-.229-1.371-.686-2.057-.914-.686-1.828-1.371-1.143-1.371-2.285-1.371-1.599-.457-3.199 0-.685-.914-2.97-.686-3.427-.457-4.798 0-2.514.686-3.428.686-2.056-.457-3.427-.229-2.513-.457-4.341-.686-2.742 0-4.798-.229-3.885.229-5.255.229.229.457-1.371 0-3.199.914-3.884.457-1.143.229-2.057.229-1.143-.229-1.143-.914.679-1.597 1.136-2.054zm183.61 77.167c-.6.6-1.7.1-2.899.1s-2.8.3-4-.3-4-.2-5-.4-2.4-.2-4 0-2.8-.6-5.2-.8-5.6-.6-7.6-.4-5.4-.2-6.6.2-5.4 1.2-7.6 1.4-5.6.8-7.6.6-5.4-.2-7.8-.4-4.2-.4-5.6-.2-3.3-1.2-4.3-.8-.3 1.2-1.3 1.2-1.4-.4-2.4-.4-1-.2-1.6 0-.1 1.1-.9 1.7-.7.5-1.7-.1-1.8-.4-3-.2-1.6.6-2.2 0 .2-.4-.6-.6-.4-.4-1 0 .2 1.2-.8 1.2-1.6 0-2.6-.2-1.2.2-2.6-.4-1-.6-1.6-1.4-.4-1.4-1.8-1.2-4.6-.2-6-.2-2-.2-3-.6-1-1.4-1.8-.8.4 1.4-.4 1.6-1.6-.2-2.6-.2-1.4 0-3.2.4-2.4.2-4.2.4-2.2.4-3.6.4-1.2-.2-2.8-.4-1.8-.2-3.6 0-4-.4-5.8-.2-3.2 0-4.4-.2-2-.6-3.2-.4-1.4 0-2.4.6-1.4 1.4-2.2 2.2-.4 1.3-2 1.1-1.2-.3-1.8-1.1-.4-1-.8-1.6 0-1.8-1.4-1.8-.6-.2-2 .2-2 .6-3.4.8c0 0-1.6.1-2.4.3s-3.6.4-4.2 0-3 .1-4-.1-4-.4-5.2-.4-3.6.4-4.4 0-1.8-.2-2.8-.6-3.8-.8-4.8-.4-2.8 1.6-4.2 1.6-5 1-6.4.8-7.6-.4-9-.4-6.2 0-7.2-.2-4 .2-5.6-.2-3.2-.8-4.6-1-2.8 0-4.6.2-2.4 0-3.4-.4-1.7.5-2.3-.5.5-2.1.7-3.3.3-1.6.1-2.6.5-1.3.9-2.1 1.6-2.5 2.2-3.3.9-1.7 1.3-2.5 1-1.4 1.4-2.4.4-.4 1-1.8 2.9-3.9 3.5-4.5 1.4-2.4 2.2-3.2 1.3-2.5 1.7-3.5 2.1-2.7 2.9-3.1 1.4-1.6 2-2.8 2.3-1.9 2.5-3.5 1.9-2.3 2.3-3.9 1.4-4.2 2-4.8 2.2-2.8 2.2-2.8c.8-.8.8-2.3 1.4-3.3s1.6-.9 2.8-1.3 4.8-1 6-1.2 6-.2 7.6-.4 6-.4 7.4-.2 6 .8 7.4.8 4 .4 5.4.2 5 .4 6.6.8 6.8.6 8 .6h8.6l9.4.2s6.8-.4 8-.4 4.4.4 5.6.6 3.2-.4 4-.4 2.2-.8 2.6-.4 2.8 2.2 3.8 2.2 1.8-1 2.6-1.6 2-1.8 3-1.6 2.8.4 4 1 3.6.8 5.4.8 5.6-.4 6.6-.4 4.2.6 6 .6 5.8-.6 7.4-.6 5.8-.6 7.4-.2 6.2.6 7.8.6 4.8-1 6.4-.6c0 0 1.6.4 2.4.4s5.2.4 6.4.4h4.2c1 0 1.2 0 2.2.4s.4.4 2 .8 1.6-.2 2.4.8 2.4 2.6 3.2 4.4 1.4 4 2.2 5.6 2.2 3.8 3.4 4.6 2 2.9 2.8 4.1 3 1.7 3.4 3.5 1.7 3.9 2.3 4.9 1.7 1.3 2.1 3.1 1.4 4.4 2 6-.2 4.2 1 6.4l2.4 4.5c1 1.8 2.3 2.9 2.7 3.7s1.399 2.601.799 3.2z" opacity=".51"/></svg>